# xmcd
#
# Track frame offsets:
#   150
#   16110
#   37376
#   55464
#   70926
#   88564
#   106608
#   123492
#   139992
#
# Disc length: 2147 seconds
#
# Revision: 0
# Processed by: cddbd v1.5.2PL0 Copyright (c) Steve Scherf et al.
# Submitted via: GXTranscoder 2.0.1939
#
DISCID=7b086109
DTITLE=Sarah McLachlan - Fumbling Towards Ecstasy
DYEAR=2002
DGENRE=Country
TTITLE0=breb
TTITLE1=waev
TTITLE2=Fear
TTITLE3=besb
TTITLE4=bseb
TTITLE5=bsedb
TTITLE6=bsedb
TTITLE7=ydb
TTITLE8=eswb
EXTD=
EXTT0=
EXTT1=
EXTT2=
EXTT3=
EXTT4=
EXTT5=
EXTT6=
EXTT7=
EXTT8=
PLAYORDER=
